<mxfile host="app.diagrams.net" agent="Mozilla/5.0 (Windows NT 10.0; Win64; x64) AppleWebKit/537.36 (KHTML, like Gecko) Chrome/132.0.0.0 Safari/537.36 OPR/117.0.0.0" version="26.2.6">
  <diagram name="PÃ¡gina-1" id="RVYwOZHccxi8uKLHSNYb">
    <mxGraphModel dx="690" dy="363" grid="1" gridSize="10" guides="1" tooltips="1" connect="1" arrows="1" fold="1" page="1" pageScale="1" pageWidth="827" pageHeight="1169" math="0" shadow="0">
      <root>
        <mxCell id="0" />
        <mxCell id="1" parent="0" />
        <mxCell id="rVLTeW6lwjSzrXeNwcrQ-4" value="Aluno" style="whiteSpace=wrap;html=1;align=center;strokeWidth=1;fontSize=9;" vertex="1" parent="1">
          <mxGeometry x="70" y="130" width="60" height="30" as="geometry" />
        </mxCell>
        <mxCell id="rVLTeW6lwjSzrXeNwcrQ-5" value="Matricula" style="ellipse;whiteSpace=wrap;html=1;align=center;fontStyle=4;strokeWidth=1;fontSize=9;" vertex="1" parent="1">
          <mxGeometry x="40" y="70" width="30" height="29.999999999999996" as="geometry" />
        </mxCell>
        <mxCell id="rVLTeW6lwjSzrXeNwcrQ-6" style="edgeStyle=orthogonalEdgeStyle;rounded=0;orthogonalLoop=1;jettySize=auto;html=1;entryX=0.109;entryY=0.076;entryDx=0;entryDy=0;entryPerimeter=0;strokeWidth=1;fontSize=9;" edge="1" parent="1" source="rVLTeW6lwjSzrXeNwcrQ-5" target="rVLTeW6lwjSzrXeNwcrQ-4">
          <mxGeometry relative="1" as="geometry" />
        </mxCell>
        <mxCell id="rVLTeW6lwjSzrXeNwcrQ-10" style="edgeStyle=orthogonalEdgeStyle;rounded=0;orthogonalLoop=1;jettySize=auto;html=1;entryX=0.25;entryY=0;entryDx=0;entryDy=0;" edge="1" parent="1" source="rVLTeW6lwjSzrXeNwcrQ-7" target="rVLTeW6lwjSzrXeNwcrQ-4">
          <mxGeometry relative="1" as="geometry">
            <Array as="points" />
          </mxGeometry>
        </mxCell>
        <mxCell id="rVLTeW6lwjSzrXeNwcrQ-7" value="nome" style="ellipse;whiteSpace=wrap;html=1;align=center;strokeWidth=1;fontSize=9;" vertex="1" parent="1">
          <mxGeometry x="70" y="70" width="30" height="30" as="geometry" />
        </mxCell>
        <mxCell id="rVLTeW6lwjSzrXeNwcrQ-12" value="Aula" style="whiteSpace=wrap;html=1;align=center;fontSize=8;" vertex="1" parent="1">
          <mxGeometry x="300" y="130" width="60" height="30" as="geometry" />
        </mxCell>
        <mxCell id="rVLTeW6lwjSzrXeNwcrQ-15" style="edgeStyle=orthogonalEdgeStyle;rounded=0;orthogonalLoop=1;jettySize=auto;html=1;entryX=0;entryY=0;entryDx=0;entryDy=0;fontSize=8;" edge="1" parent="1" source="rVLTeW6lwjSzrXeNwcrQ-14" target="rVLTeW6lwjSzrXeNwcrQ-12">
          <mxGeometry relative="1" as="geometry" />
        </mxCell>
        <mxCell id="rVLTeW6lwjSzrXeNwcrQ-14" value="id_aula" style="ellipse;whiteSpace=wrap;html=1;align=center;fontStyle=4;fontSize=8;" vertex="1" parent="1">
          <mxGeometry x="280" y="70" width="30" height="30" as="geometry" />
        </mxCell>
        <mxCell id="rVLTeW6lwjSzrXeNwcrQ-16" value="aula_de" style="ellipse;whiteSpace=wrap;html=1;align=center;fontSize=8;" vertex="1" parent="1">
          <mxGeometry x="310" y="70" width="30" height="32.5" as="geometry" />
        </mxCell>
        <mxCell id="rVLTeW6lwjSzrXeNwcrQ-17" style="edgeStyle=orthogonalEdgeStyle;rounded=0;orthogonalLoop=1;jettySize=auto;html=1;entryX=0.406;entryY=0.095;entryDx=0;entryDy=0;entryPerimeter=0;" edge="1" parent="1" source="rVLTeW6lwjSzrXeNwcrQ-16" target="rVLTeW6lwjSzrXeNwcrQ-12">
          <mxGeometry relative="1" as="geometry" />
        </mxCell>
        <mxCell id="rVLTeW6lwjSzrXeNwcrQ-20" style="edgeStyle=orthogonalEdgeStyle;rounded=0;orthogonalLoop=1;jettySize=auto;html=1;entryX=0.75;entryY=0;entryDx=0;entryDy=0;" edge="1" parent="1" source="rVLTeW6lwjSzrXeNwcrQ-19" target="rVLTeW6lwjSzrXeNwcrQ-12">
          <mxGeometry relative="1" as="geometry" />
        </mxCell>
        <mxCell id="rVLTeW6lwjSzrXeNwcrQ-19" value="&lt;font style=&quot;font-size: 7px;&quot;&gt;Professor&lt;/font&gt;" style="ellipse;whiteSpace=wrap;html=1;align=center;fontSize=8;" vertex="1" parent="1">
          <mxGeometry x="340" y="70" width="30" height="30" as="geometry" />
        </mxCell>
        <mxCell id="rVLTeW6lwjSzrXeNwcrQ-24" value="dia_sem" style="ellipse;whiteSpace=wrap;html=1;align=center;fontSize=7;" vertex="1" parent="1">
          <mxGeometry x="290" y="190" width="30" height="30" as="geometry" />
        </mxCell>
        <mxCell id="rVLTeW6lwjSzrXeNwcrQ-26" style="edgeStyle=orthogonalEdgeStyle;rounded=0;orthogonalLoop=1;jettySize=auto;html=1;entryX=0.109;entryY=1.052;entryDx=0;entryDy=0;entryPerimeter=0;" edge="1" parent="1" source="rVLTeW6lwjSzrXeNwcrQ-24" target="rVLTeW6lwjSzrXeNwcrQ-12">
          <mxGeometry relative="1" as="geometry" />
        </mxCell>
        <mxCell id="rVLTeW6lwjSzrXeNwcrQ-27" value="horario" style="ellipse;whiteSpace=wrap;html=1;align=center;fontSize=8;" vertex="1" parent="1">
          <mxGeometry x="320" y="190" width="30" height="30" as="geometry" />
        </mxCell>
        <mxCell id="rVLTeW6lwjSzrXeNwcrQ-28" style="edgeStyle=orthogonalEdgeStyle;rounded=0;orthogonalLoop=1;jettySize=auto;html=1;entryX=0.431;entryY=0.978;entryDx=0;entryDy=0;entryPerimeter=0;" edge="1" parent="1" source="rVLTeW6lwjSzrXeNwcrQ-27" target="rVLTeW6lwjSzrXeNwcrQ-12">
          <mxGeometry relative="1" as="geometry" />
        </mxCell>
        <mxCell id="rVLTeW6lwjSzrXeNwcrQ-29" value="Frequenta" style="shape=rhombus;perimeter=rhombusPerimeter;whiteSpace=wrap;html=1;align=center;fontSize=8;" vertex="1" parent="1">
          <mxGeometry x="190" y="123.75" width="60" height="42.5" as="geometry" />
        </mxCell>
        <mxCell id="rVLTeW6lwjSzrXeNwcrQ-35" value="" style="endArrow=none;html=1;rounded=0;exitX=1;exitY=0.5;exitDx=0;exitDy=0;" edge="1" parent="1" source="rVLTeW6lwjSzrXeNwcrQ-29" target="rVLTeW6lwjSzrXeNwcrQ-12">
          <mxGeometry relative="1" as="geometry">
            <mxPoint x="250" y="140" as="sourcePoint" />
            <mxPoint x="410" y="140" as="targetPoint" />
          </mxGeometry>
        </mxCell>
        <mxCell id="rVLTeW6lwjSzrXeNwcrQ-36" value="M" style="resizable=0;html=1;whiteSpace=wrap;align=left;verticalAlign=bottom;" connectable="0" vertex="1" parent="rVLTeW6lwjSzrXeNwcrQ-35">
          <mxGeometry x="-1" relative="1" as="geometry" />
        </mxCell>
        <mxCell id="rVLTeW6lwjSzrXeNwcrQ-37" value="N" style="resizable=0;html=1;whiteSpace=wrap;align=right;verticalAlign=bottom;" connectable="0" vertex="1" parent="rVLTeW6lwjSzrXeNwcrQ-35">
          <mxGeometry x="1" relative="1" as="geometry" />
        </mxCell>
        <mxCell id="rVLTeW6lwjSzrXeNwcrQ-38" value="" style="endArrow=none;html=1;rounded=0;exitX=1;exitY=0.5;exitDx=0;exitDy=0;entryX=0;entryY=0.5;entryDx=0;entryDy=0;" edge="1" parent="1" target="rVLTeW6lwjSzrXeNwcrQ-29">
          <mxGeometry relative="1" as="geometry">
            <mxPoint x="130" y="144.66" as="sourcePoint" />
            <mxPoint x="180" y="144.66" as="targetPoint" />
          </mxGeometry>
        </mxCell>
        <mxCell id="rVLTeW6lwjSzrXeNwcrQ-39" value="M" style="resizable=0;html=1;whiteSpace=wrap;align=left;verticalAlign=bottom;" connectable="0" vertex="1" parent="rVLTeW6lwjSzrXeNwcrQ-38">
          <mxGeometry x="-1" relative="1" as="geometry" />
        </mxCell>
        <mxCell id="rVLTeW6lwjSzrXeNwcrQ-40" value="N" style="resizable=0;html=1;whiteSpace=wrap;align=right;verticalAlign=bottom;" connectable="0" vertex="1" parent="rVLTeW6lwjSzrXeNwcrQ-38">
          <mxGeometry x="1" relative="1" as="geometry" />
        </mxCell>
        <mxCell id="rVLTeW6lwjSzrXeNwcrQ-43" value="Matricula" style="ellipse;whiteSpace=wrap;html=1;align=center;fontSize=7;" vertex="1" parent="1">
          <mxGeometry x="190" y="190" width="30" height="20" as="geometry" />
        </mxCell>
        <mxCell id="rVLTeW6lwjSzrXeNwcrQ-44" style="edgeStyle=orthogonalEdgeStyle;rounded=0;orthogonalLoop=1;jettySize=auto;html=1;entryX=0.333;entryY=0.812;entryDx=0;entryDy=0;entryPerimeter=0;" edge="1" parent="1" source="rVLTeW6lwjSzrXeNwcrQ-43" target="rVLTeW6lwjSzrXeNwcrQ-29">
          <mxGeometry relative="1" as="geometry" />
        </mxCell>
        <mxCell id="rVLTeW6lwjSzrXeNwcrQ-45" value="id_aula" style="ellipse;whiteSpace=wrap;html=1;align=center;fontSize=7;" vertex="1" parent="1">
          <mxGeometry x="220" y="187.5" width="30" height="25" as="geometry" />
        </mxCell>
        <mxCell id="rVLTeW6lwjSzrXeNwcrQ-46" style="edgeStyle=orthogonalEdgeStyle;rounded=0;orthogonalLoop=1;jettySize=auto;html=1;entryX=0.664;entryY=0.889;entryDx=0;entryDy=0;entryPerimeter=0;" edge="1" parent="1" source="rVLTeW6lwjSzrXeNwcrQ-45" target="rVLTeW6lwjSzrXeNwcrQ-29">
          <mxGeometry relative="1" as="geometry" />
        </mxCell>
      </root>
    </mxGraphModel>
  </diagram>
</mxfile>
